<?xml version="1.0" encoding="utf-8"?>
<!-- Generator: Adobe Illustrator 25.1.0, SVG Export Plug-In . SVG Version: 6.00 Build 0)  -->
<svg version="1.1" id="Layer_1" xmlns="http://www.w3.org/2000/svg" xmlns:xlink="http://www.w3.org/1999/xlink" x="0px" y="0px"
	 viewBox="0 0 377.6 190" style="enable-background:new 0 0 377.6 190;" xml:space="preserve">
<style type="text/css">
	.st0{fill:#FFFFFF;}
</style>
<g>
	<path class="st0" d="M339,128.9c-8.4,0-16.8,0-25.3,0c-2.7,0-5.2-0.5-7.6-1.6c-2.1-0.9-3.5-2.3-4.2-4.5c-0.8-2.4-1.3-4.8-1.3-7.3
		c0-12,0-23.9,0-35.9c0-2.1,0.3-4.2,0.9-6.3c0.7-2.5,2.3-4.3,4.8-5.3c1.6-0.7,3.3-1,5-1.2c1.4-0.2,2.8-0.2,4.2-0.2
		c16.1,0,32.2,0,48.3,0c2,0,4.1,0.1,6.1,0.7c3.3,0.9,5.6,2.7,6.6,6.1c0.6,2.2,1.1,4.4,1.1,6.8c0,11.6,0,23.3,0,34.9
		c0,2.4-0.4,4.7-1.1,7c-0.9,3.3-3.3,5.1-6.5,6c-2.1,0.6-4.2,0.9-6.4,0.9C355.4,128.9,347.2,128.9,339,128.9z M339.2,77.8
		c-7.5,0-15,0-22.5,0c-0.3,0-0.6,0-0.9,0c-0.4,0-0.5,0.1-0.5,0.5c0,0.2,0,0.4,0,0.6c0,12.4,0,24.7,0,37.1c0,1.1-0.1,1.1,1.1,1.1
		c15.2,0,30.3,0,45.5,0c1.1,0,1.1,0.1,1.1-1.1c0-0.1,0-0.2,0-0.2c0-12.2,0-24.5,0-36.7c0-0.2,0-0.5,0-0.7c0-0.3-0.1-0.5-0.5-0.5
		c-0.3,0-0.6,0-0.9,0C354.1,77.8,346.6,77.8,339.2,77.8z"/>
	<path class="st0" d="M258.1,105.5c9.4,7.7,18.6,15.5,28,23.2c-0.2,0.4-0.5,0.2-0.8,0.2c-6.1,0-12.3,0-18.4,0
		c-0.6,0-1.1-0.1-1.6-0.6c-11.8-11-23.5-21.9-35.3-32.9c-0.1-0.1-0.3-0.2-0.6-0.5c0.6-0.3,1.1-0.2,1.5-0.2c9.8,0,19.6,0,29.4,0
		c1.7,0,3.1-0.5,4.4-1.5c0.8-0.6,1.2-1.4,1.2-2.5c0-3.2,0-6.3,0-9.5c0-1-0.4-1.8-1.1-2.4c-1.1-0.9-2.3-1.5-3.7-1.5
		c-11.1,0-22.3,0-33.4,0c-0.9,0-0.9,0-0.9,0.9c0,0.3,0,0.6,0,0.9c0,16.2,0,32.3,0,48.5c0,1.6,0.2,1.4-1.4,1.4c-3.9,0-7.8,0-11.6,0
		c-1.4,0-1.3,0.1-1.3-1.3c0-17.3,0-34.6,0-51.9c0-2.8,0-5.6,0-8.4c0-0.9,0-0.9,0.9-0.9c0.2,0,0.3,0,0.5,0c17.7,0,35.4,0,53.2,0
		c2.2,0,4.3,0.4,6.4,1c0.8,0.2,1.5,0.6,2.1,1.1c2.7,2.3,4.4,5.1,4.4,8.7c0,5.7,0,11.3,0,17c0,1.5-0.3,2.9-0.8,4.3
		c-1.3,3.5-4,5.3-7.5,6.1c-1.4,0.3-2.9,0.5-4.3,0.5c-2.8,0-5.6,0-8.4,0C258.6,105.3,258.4,105.2,258.1,105.5z"/>
	<path class="st0" d="M74.5,128.7c-0.4,0.3-0.8,0.2-1.2,0.2c-4.1,0-8.2,0-12.3,0c-1.4,0-1.2,0.1-1.2-1.2c0-8,0-16,0-24
		c0-1.8,0.1-1.6-1.5-1.6c-14.1,0-28.2,0-42.3,0c-1.6,0-1.5-0.3-1.5,1.4c0,7.9,0,15.8,0,23.8c0,0.2,0,0.4,0,0.6c0,1.1,0,1.1-1.1,1.1
		c-4.1,0-8.3,0-12.4,0c-1,0-1.1,0-1.1-1.1c0-5.4,0-10.8,0-16.1c0-14.5,0-29,0-43.5c0-0.3,0-0.6,0-0.9c-0.1-0.7,0.2-0.8,0.9-0.8
		c4.3,0,8.6,0,12.9,0c0.6,0,0.8,0.2,0.8,0.8c0,2,0,3.9,0,5.9c0,5.4,0,10.8,0,16.1c0,0.3,0,0.6,0,0.9c0,0.4,0.2,0.5,0.5,0.5
		c0.3,0,0.6,0,0.9,0c14.1,0,28.3,0,42.4,0c0.1,0,0.3,0,0.4,0c1.1,0,1.1,0,1.1-1.1c0-6.6,0-13.2,0-19.8c0-0.8,0-1.7,0-2.5
		c0-0.6,0.1-0.8,0.8-0.8c4.4,0,8.8,0,13.1,0c0.6,0,0.8,0.2,0.8,0.8c0,0.2,0,0.4,0,0.6c0,19.8,0,39.7,0,59.5
		C74.5,127.9,74.5,128.3,74.5,128.7z"/>
	<path class="st0" d="M77,159.8c-1.9,2-3.7,4.2-5.5,6.3c-6.3,7.3-12.7,14.7-19,22c-0.2,0.2-0.4,0.4-0.7,0.6c1-2.1,3-3.5,4-5.6
		c-0.3-0.3-0.4-0.1-0.6,0.1c-0.3,0.4-0.5,1-1.1,1.3l0,0c4.6-7.5,9.1-15,13.7-22.5c12.9-21.1,25.8-42.2,38.7-63.3
		c0.5-0.9,0.5-1.5,0-2.3c-7.6-11.9-15.2-23.9-22.9-35.8c-0.5-0.7-0.6-1.3-0.2-2.2c0.7-1.7,1.3-3.5,1.9-5.3c0.4,0.1,0.5,0.4,0.6,0.6
		C94,68.1,102,82.5,110.2,96.8c0.4,0.7,0.2,1.2-0.2,1.8c-9.5,14.7-19.1,29.4-28.6,44.2c-8.2,12.7-16.4,25.4-24.6,38.1
		c-0.2,0.3-0.4,0.7-0.6,1.1c-0.2,0.3-0.7,0.6-0.3,0.9c0.4,0.3,0.5-0.3,0.7-0.6c1.6-2.1,3.2-4.2,4.8-6.3c19.8-26.5,39.6-53,59.4-79.6
		c0.1-0.2,0.2-0.4,0.4-0.5c0.5-0.5,0.4-0.9,0-1.4c-0.2-0.3-0.4-0.6-0.6-1c-8.3-14.5-16.7-29-25-43.4c-0.2-0.4-0.5-0.7-0.6-1.2
		c0.3-0.3,0.6-0.2,0.9-0.2c13.4,0,26.9,0,40.3,0c0.9,0,1.3,0.3,1.7,1.1c3.4,6.1,6.9,12.2,10.3,18.3c0.2,0.4,0.4,0.7,0.7,1.2
		c9.3-8.5,18.5-17,27.8-25.5c0,0,0.1,0.1,0.1,0.1c-10.6,12.3-21.3,24.7-31.9,37c-0.4-0.2-0.5-0.6-0.7-0.9
		c-3.9-6.8-7.9-13.6-11.8-20.5c-0.5-0.8-1-1.1-1.9-1.1c-5.8,0.1-11.7,0-17.5,0c-0.4,0-0.7,0-1.1,0c-0.2,0.5,0.2,0.8,0.4,1.2
		c6.6,11.4,13.2,22.8,19.7,34.2c0.9,1.6,1,1-0.2,2.4c-15.3,17.7-30.5,35.4-45.8,53.2c-0.2,0.3-0.5,0.6-0.7,0.9
		c-1.6,1.7-3.1,3.5-4.6,5.2C79.5,156.8,78.1,158.2,77,159.8z"/>
	<path class="st0" d="M213.4,30.3c2-2.1,3.8-4.3,5.7-6.5c4.1-4.8,8.2-9.6,12.4-14.3c0.2-0.2,0.4-0.4,0.6-0.6
		c0.1,0.1,0.1,0.1,0.2,0.2c0,0.5-0.7,0.7-0.6,1.2c0,0,0,0,0,0c-0.4,0.1-0.6,0.3-0.5,0.8l0,0c-0.8,0.5-1,0.8-1,1.5l0,0
		c-0.6-0.2-0.6,0.4-0.8,0.6c-2.4,3.2-4.8,6.4-7.2,9.6c-18.5,24.8-37,49.6-55.5,74.3c-0.7,0.9-0.7,1.5-0.2,2.5
		c8.8,15.4,17.6,30.7,26.4,46.1c0.2,0.3,0.4,0.5,0.4,1c-0.4,0.1-0.8,0.1-1.2,0.1c-13.2,0-26.4,0-39.7,0c-1,0-1.6-0.3-2-1.2
		c-3.5-6.2-7-12.3-10.5-18.5c-0.1-0.2-0.2-0.5-0.6-0.8c-0.3,0.3-0.7,0.6-1.1,0.9c-9.2,7.9-18.5,15.7-27.7,23.6
		c-0.4,0.4-0.9,0.7-1.4,1.1l0,0c-0.1-0.4,0.3-0.7,0.5-0.9c10.8-12.6,21.7-25.1,32.5-37.7c0.2-0.2,0.4-0.4,0.6-0.7
		c0.5,0.3,0.7,0.9,0.9,1.3c4.2,7.3,8.4,14.7,12.6,22c0.5,0.9,1,1.2,2,1.2c5.8-0.1,11.5,0,17.3,0c0.4,0,0.8,0,1.3,0
		c0-0.6-0.3-1-0.5-1.3c-6.9-12.1-13.8-24.1-20.6-36.2c0-0.1-0.1-0.1-0.1-0.2c-0.6-1.1-0.7-0.9,0.2-1.9c3.3-3.8,6.6-7.6,9.9-11.5
		c13.1-15.2,26.1-30.3,39.2-45.5c0.1-0.2,0.2-0.3,0.4-0.5c0.2-0.2,0.4-0.4,0.6-0.6c2.3-2.6,4.6-5.3,6.9-7.9
		C212.9,31.1,213.3,30.8,213.4,30.3z"/>
	<path class="st0" d="M213.4,30.3c-0.2,0.4-0.5,0.7-0.8,1.1c-2.3,2.7-4.6,5.3-6.9,7.9c-0.2,0.2-0.4,0.4-0.6,0.6
		c-6.1-6.8-12.9-12.9-20.5-18c-9.5-6.3-19.6-11.1-30.8-13.5c-6.4-1.4-12.8-2-19.4-1.7c-19,0.8-36,7-51,18.6
		c-1.1,0.9-2.2,1.8-3.3,2.7c-0.5,0.4-1.3,0.4-1.4,1.2l0,0c0.8-0.5,1.2-1.4,1.9-2.1C90.3,17.1,101.8,9.7,115,5
		c10.6-3.7,21.5-5.4,32.7-4.9c11.3,0.5,22.1,3.1,32.5,7.4c10.9,4.6,20.8,10.7,29.4,18.9C210.9,27.7,212.1,29,213.4,30.3z"/>
	<path class="st0" d="M77,159.8c1.1-1.6,2.5-3,3.7-4.4c1.5-1.7,2.9-3.6,4.6-5.2c11.1,12.4,24.2,22.1,39.9,28.1
		c5.8,2.2,11.7,3.8,17.9,4.6c5.3,0.7,10.6,0.8,16,0.4c10.8-0.8,21.2-3.5,31-8.1c6.4-3,12.3-6.7,17.8-11.1c0.3-0.3,0.6-0.6,1.1-0.7
		c0.1,0.6-0.4,0.8-0.7,1.1c-3,3-6.3,5.8-9.8,8.4c-10.9,8-23.1,13.3-36.4,15.8c-5.8,1.1-11.7,1.6-17.7,1.5c-12-0.3-23.4-2.9-34.5-7.5
		c-9.7-4.1-18.6-9.5-26.6-16.4C81.2,164.1,79.1,161.9,77,159.8z"/>
	<path class="st0" d="M230.1,12.5c0.1,0.2,0.5-0.1,0.4,0.2c-0.1,0.3-0.3,0.6-0.5,0.9c-14.9,24.4-29.7,48.7-44.6,73.1
		c-2,3.3-4.1,6.7-6.1,10c-0.5,0.8-0.5,1.3,0,2.1c7.9,12.5,15.7,24.9,23.6,37.4c0.5,0.8,0.6,1.4,0.4,2.3c-0.5,1.4-0.8,2.9-1.2,4.3
		c-0.1,0.2,0,0.5-0.3,0.6c-0.4-0.2-0.5-0.6-0.7-1c-8.4-14.7-16.9-29.3-25.3-44c-0.5-0.8-0.3-1.3,0.2-1.9
		c13.5-20.8,27-41.7,40.5-62.6c4.4-6.9,8.9-13.7,13.3-20.6C229.9,13.2,230.3,13,230.1,12.5C230.2,12.5,230.1,12.5,230.1,12.5z"/>
	<path class="st0" d="M209.2,162.9c0.3-0.4,0.8-0.8,1.3-1c-0.3,0.5-0.6,0.9-1.1,1.2C209.3,163.1,209.3,163,209.2,162.9z"/>
	<path class="st0" d="M231.1,11.5c0-0.2,0.1-0.3,0-0.5c0,0,0,0,0,0c0.3,0.1,0.3-0.2,0.5-0.3l0,0C231.6,11.1,231.5,11.4,231.1,11.5
		L231.1,11.5z"/>
	<path class="st0" d="M54.1,184.5c0,0.3,0,0.5-0.3,0.6C54,184.9,54.1,184.7,54.1,184.5C54.2,184.5,54.1,184.5,54.1,184.5z"/>
	<path class="st0" d="M232.3,8.6c0.1-0.1,0.2-0.4,0.3-0.3c0.2,0.2,0,0.3-0.2,0.4C232.4,8.7,232.3,8.7,232.3,8.6z"/>
	<path class="st0" d="M231.9,10.2c0,0.2,0,0.4-0.2,0.5c0,0,0,0,0,0c0-0.2,0-0.3,0-0.5c0,0,0,0,0,0C231.7,10.3,231.8,10.2,231.9,10.2
		L231.9,10.2z"/>
	<path class="st0" d="M231.1,11.5c0,0.2,0,0.4-0.2,0.5l0,0C230.9,11.8,231,11.6,231.1,11.5C231.1,11.5,231.1,11.5,231.1,11.5z"/>
	<path class="st0" d="M232,8.9c0.1-0.1,0.2-0.2,0.3-0.3c0,0,0.1,0.1,0.1,0.1c0,0.1-0.1,0.3-0.2,0.3C232.2,9,232.1,9,232,8.9z"/>
	<path class="st0" d="M232.2,10c0,0,0-0.1,0-0.1C232.2,9.9,232.2,10,232.2,10C232.1,10,232.2,10,232.2,10z"/>
	<path class="st0" d="M231.9,10.2c0.1-0.1,0.2-0.2,0.3-0.2c0,0,0,0,0,0C232.1,10.1,232.1,10.2,231.9,10.2
		C231.9,10.2,231.9,10.2,231.9,10.2z"/>
	<path class="st0" d="M230.9,12c0,0.1,0,0.1-0.1,0.2c0,0-0.1-0.1-0.1-0.1C230.8,12.1,230.9,12,230.9,12C230.9,12,230.9,12,230.9,12z
		"/>
	<polygon class="st0" points="78.7,29.2 78.7,29.3 78.7,29.3 	"/>
	<path class="st0" d="M109,151.8c-0.1,0.1-0.2,0.2-0.2,0.3l0,0C108.8,151.9,108.9,151.8,109,151.8C109,151.8,109,151.8,109,151.8z"
		/>
	<polygon class="st0" points="108.8,152.1 108.7,152.1 108.8,152.1 	"/>
	<path class="st0" d="M209.4,163.1c-0.1,0.1-0.2,0.2-0.2,0.2c-0.2-0.1-0.1-0.2,0-0.4C209.3,163,209.3,163.1,209.4,163.1z"/>
	<path class="st0" d="M56.6,182.2c-0.2,0.3-0.3,0.9-0.7,0.6c-0.4-0.3,0.1-0.6,0.3-0.9C56.3,182,56.4,182.1,56.6,182.2z"/>
	<path class="st0" d="M231.7,10.2c0,0.2,0,0.3,0,0.5c-0.2,0-0.2,0.4-0.5,0.3C231,10.6,231.3,10.4,231.7,10.2z"/>
</g>
</svg>
