<?xml version="1.0" encoding="utf-8"?>
<!-- Generator: Adobe Illustrator 25.1.0, SVG Export Plug-In . SVG Version: 6.00 Build 0)  -->
<svg version="1.1" id="Layer_1" xmlns="http://www.w3.org/2000/svg" xmlns:xlink="http://www.w3.org/1999/xlink" x="0px" y="0px"
	 viewBox="0 0 496.5 497.1" style="enable-background:new 0 0 496.5 497.1;" xml:space="preserve">
<style type="text/css">
	.st0{fill:#0F1724;}
	.st1{fill:#00FF00;}
	.st2{fill:none;stroke:#00FF00;stroke-width:1.5;stroke-linecap:round;stroke-miterlimit:10;}
	.st3{fill:none;stroke:#FFFFFF;stroke-width:1.5;stroke-linecap:round;stroke-miterlimit:10;}
	.st4{fill:none;stroke:#FFFFFF;stroke-width:2;stroke-linecap:round;stroke-miterlimit:10;}
	.st5{fill:none;stroke:#FFFFFF;stroke-miterlimit:10;}
	.st6{fill:#0F1724;stroke:#FFFFFF;stroke-miterlimit:10;}
	.st7{fill:none;stroke:#00FF00;stroke-width:1.25;stroke-miterlimit:10;}
	.st8{fill:none;stroke:#4F4F4F;stroke-width:0.5;stroke-miterlimit:10;}
	.st9{fill:#FFFFFF;}
	.st10{fill:#FFFFFF;stroke:#0F1724;stroke-width:7;stroke-miterlimit:10;}
	.st11{fill:#020202;}
	.st12{fill:#FF03CA;}
	.st13{fill:#0F1724;stroke:#FFFFFF;stroke-width:1.25;stroke-miterlimit:10;}
	.st14{fill:none;stroke:#FFFFFF;stroke-width:1.25;stroke-miterlimit:10;}
	.st15{fill:#4F4F4F;}
	.st16{fill:none;stroke:#4F4F4F;stroke-miterlimit:10;}
	.st17{fill:#FFFFFF;stroke:#0F1724;stroke-width:5;stroke-miterlimit:10;}
	.st18{fill:#0F1724;stroke:#FFFFFF;stroke-width:1.5;stroke-miterlimit:10;}
	.st19{fill:#0F1724;stroke:#FFFFFF;stroke-width:1.5;stroke-linecap:round;stroke-miterlimit:10;}
	.st20{fill:none;stroke:#0F1724;stroke-width:1.5;stroke-linecap:round;stroke-miterlimit:10;}
	.st21{fill:none;stroke:#FFFFFF;stroke-width:1.5;stroke-linecap:round;stroke-linejoin:round;stroke-miterlimit:10;}
	.st22{fill:none;stroke:#00FF00;stroke-width:6;stroke-linecap:round;stroke-miterlimit:10;}
	.st23{fill:url(#SVGID_1_);}
	.st24{fill:#0F1724;stroke:#FFFFFF;stroke-width:2;stroke-linecap:round;stroke-miterlimit:10;}
	.st25{fill:#0F1724;stroke:#00FF00;stroke-miterlimit:10;}
	.st26{fill:none;stroke:#00FF00;stroke-miterlimit:10;}
	.st27{fill:#0F1724;stroke:#00FF00;stroke-width:3;stroke-miterlimit:10;}
	.st28{fill:#FFFFFF;stroke:#0F1724;stroke-width:4;stroke-miterlimit:10;}
	.st29{fill:#364151;}
	.st30{fill:none;stroke:#00FF00;stroke-width:0.5;stroke-miterlimit:10;}
</style>
<circle class="st8" cx="248.3" cy="248.6" r="236.5"/>
<g>
	<g>
		<circle class="st9" cx="248.2" cy="12.1" r="8.2"/>
		<path class="st0" d="M248.2,23.8c-6.4,0-11.7-5.2-11.7-11.7s5.2-11.7,11.7-11.7s11.7,5.2,11.7,11.7S254.7,23.8,248.2,23.8z
			 M248.2,7.4c-2.6,0-4.7,2.1-4.7,4.7s2.1,4.7,4.7,4.7c2.6,0,4.7-2.1,4.7-4.7S250.8,7.4,248.2,7.4z"/>
	</g>
	<g>
		<circle class="st9" cx="309.4" cy="20.2" r="8.2"/>
		<path class="st0" d="M309.4,31.8c-1,0-2-0.1-3-0.4c-3-0.8-5.5-2.7-7.1-5.4s-2-5.9-1.2-8.9c1.7-6.2,8.1-9.9,14.3-8.3
			c6.2,1.7,9.9,8.1,8.3,14.3c-0.8,3-2.7,5.5-5.4,7.1C313.5,31.3,311.5,31.8,309.4,31.8z M309.4,15.5c-2.1,0-4,1.4-4.5,3.5
			c-0.3,1.2-0.2,2.5,0.5,3.6c0.6,1.1,1.6,1.9,2.8,2.2c1.2,0.3,2.5,0.2,3.6-0.5c1.1-0.6,1.9-1.6,2.2-2.8c0.7-2.5-0.8-5.1-3.3-5.7
			C310.2,15.5,309.8,15.5,309.4,15.5z"/>
	</g>
	<g>
		<circle class="st9" cx="366.4" cy="43.8" r="8.2"/>
		<path class="st0" d="M366.4,55.5c-2,0-4-0.5-5.8-1.6c-5.6-3.2-7.5-10.4-4.3-16c1.6-2.7,4.1-4.6,7.1-5.4c3-0.8,6.2-0.4,8.9,1.2
			c2.7,1.6,4.6,4.1,5.4,7.1c0.8,3,0.4,6.2-1.2,8.9c-1.6,2.7-4.1,4.6-7.1,5.4C368.5,55.3,367.4,55.5,366.4,55.5z M366.4,39.1
			c-0.4,0-0.8,0.1-1.2,0.2c-1.2,0.3-2.2,1.1-2.8,2.2c-1.3,2.2-0.5,5.1,1.7,6.4c1.1,0.6,2.3,0.8,3.6,0.5c1.2-0.3,2.2-1.1,2.8-2.2l0,0
			c0.6-1.1,0.8-2.3,0.5-3.6s-1.1-2.2-2.2-2.8C368.1,39.3,367.3,39.1,366.4,39.1z"/>
	</g>
	<g>
		<circle class="st9" cx="415.4" cy="81.3" r="8.2"/>
		<path class="st0" d="M415.4,93c-3.1,0-6.1-1.2-8.3-3.4c-4.6-4.6-4.6-12,0-16.5c2.2-2.2,5.1-3.4,8.3-3.4c0,0,0,0,0,0
			c3.1,0,6.1,1.2,8.3,3.4c2.2,2.2,3.4,5.1,3.4,8.3c0,3.1-1.2,6.1-3.4,8.3h0c0,0,0,0,0,0C421.5,91.8,418.5,93,415.4,93
			C415.4,93,415.4,93,415.4,93z M415.4,76.6c-1.3,0-2.4,0.5-3.3,1.4c-1.8,1.8-1.8,4.8,0,6.6c0.9,0.9,2.1,1.4,3.3,1.4c0,0,0,0,0,0
			c1.3,0,2.4-0.5,3.3-1.4h0c0.9-0.9,1.4-2.1,1.4-3.3s-0.5-2.4-1.4-3.3C417.8,77.1,416.6,76.6,415.4,76.6z"/>
	</g>
	<g>
		<circle class="st9" cx="453" cy="130.3" r="8.2"/>
		<path class="st0" d="M453,142c-1,0-2-0.1-3-0.4c-3-0.8-5.5-2.7-7.1-5.4c-1.6-2.7-2-5.9-1.2-8.9c0.8-3,2.7-5.5,5.4-7.1
			c2.7-1.6,5.9-2,8.9-1.2c3,0.8,5.5,2.7,7.1,5.4c3.2,5.6,1.3,12.7-4.3,16C457,141.4,455,142,453,142z M453,125.6
			c-0.8,0-1.6,0.2-2.3,0.6c-1.1,0.6-1.9,1.6-2.2,2.8c-0.3,1.2-0.2,2.5,0.5,3.6c0.6,1.1,1.6,1.9,2.8,2.2c1.2,0.3,2.5,0.2,3.6-0.5l0,0
			c2.2-1.3,3-4.2,1.7-6.4c-0.6-1.1-1.6-1.9-2.8-2.2C453.8,125.6,453.4,125.6,453,125.6z"/>
	</g>
	<g>
		<circle class="st9" cx="476.6" cy="187.3" r="8.2"/>
		<path class="st0" d="M476.6,199c-2,0-4-0.5-5.8-1.6c-2.7-1.6-4.6-4.1-5.4-7.1c-1.7-6.2,2-12.6,8.3-14.3c3-0.8,6.2-0.4,8.9,1.2
			c2.7,1.6,4.6,4.1,5.4,7.1c0.8,3,0.4,6.2-1.2,8.9c-1.6,2.7-4.1,4.6-7.1,5.4l0,0C478.6,198.8,477.6,199,476.6,199z M476.6,182.6
			c-0.4,0-0.8,0.1-1.2,0.2c-2.5,0.7-4,3.2-3.3,5.7c0.3,1.2,1.1,2.2,2.2,2.8s2.3,0.8,3.6,0.5h0c1.2-0.3,2.2-1.1,2.8-2.2
			c0.6-1.1,0.8-2.3,0.5-3.6c-0.3-1.2-1.1-2.2-2.2-2.8C478.2,182.8,477.4,182.6,476.6,182.6z"/>
	</g>
	<g>
		<circle class="st9" cx="484.7" cy="248.5" r="8.2"/>
		<path class="st0" d="M484.7,260.2c-3.1,0-6.1-1.2-8.3-3.4c-2.2-2.2-3.4-5.1-3.4-8.3c0-6.4,5.2-11.7,11.7-11.7c0,0,0,0,0,0
			c3.1,0,6.1,1.2,8.3,3.4c2.2,2.2,3.4,5.1,3.4,8.3c0,3.1-1.2,6.1-3.4,8.3C490.7,258.9,487.8,260.2,484.7,260.2L484.7,260.2
			C484.7,260.2,484.7,260.2,484.7,260.2z M484.7,243.8C484.7,243.8,484.7,243.8,484.7,243.8c-1.3,0-2.4,0.5-3.3,1.4
			s-1.4,2.1-1.4,3.3c0,1.3,0.5,2.4,1.4,3.3c0.9,0.9,2.1,1.4,3.3,1.4c0,0,0,0,0,0l0,0c1.3,0,2.4-0.5,3.3-1.4s1.4-2.1,1.4-3.3
			s-0.5-2.4-1.4-3.3C487.1,244.3,485.9,243.8,484.7,243.8z"/>
	</g>
	<g>
		<circle class="st9" cx="476.6" cy="309.7" r="8.2"/>
		<path class="st0" d="M476.6,321.3c-1,0-2-0.1-3-0.4c-3-0.8-5.5-2.7-7.1-5.4s-2-5.9-1.2-8.9c0.8-3,2.7-5.5,5.4-7.1
			c2.7-1.6,5.9-2,8.9-1.2c3,0.8,5.5,2.7,7.1,5.4s2,5.9,1.2,8.9C486.5,317.9,481.8,321.3,476.6,321.3z M476.6,305
			c-0.8,0-1.6,0.2-2.3,0.6c-1.1,0.6-1.9,1.6-2.2,2.8c-0.3,1.2-0.2,2.5,0.5,3.6s1.6,1.9,2.8,2.2c2.5,0.7,5.1-0.8,5.7-3.3
			c0.3-1.2,0.2-2.5-0.5-3.6c-0.6-1.1-1.6-1.9-2.8-2.2C477.4,305,477,305,476.6,305z"/>
	</g>
	<g>
		<circle class="st9" cx="453" cy="366.7" r="8.2"/>
		<path class="st0" d="M453,378.4c-2,0-4-0.5-5.8-1.6c-2.7-1.6-4.6-4.1-5.4-7.1c-0.8-3-0.4-6.2,1.2-8.9c1.6-2.7,4.1-4.6,7.1-5.4
			s6.2-0.4,8.9,1.2c2.7,1.6,4.6,4.1,5.4,7.1c0.8,3,0.4,6.2-1.2,8.9c-1.6,2.7-4.1,4.6-7.1,5.4C455.1,378.2,454,378.4,453,378.4z
			 M453.1,362c-0.4,0-0.8,0.1-1.2,0.2c-1.2,0.3-2.2,1.1-2.8,2.2c-0.6,1.1-0.8,2.3-0.5,3.6s1.1,2.2,2.2,2.8c1.1,0.6,2.3,0.8,3.6,0.5
			c1.2-0.3,2.2-1.1,2.8-2.2c0.6-1.1,0.8-2.3,0.5-3.6s-1.1-2.2-2.2-2.8C454.7,362.2,453.9,362,453.1,362z"/>
	</g>
	<g>
		<circle class="st9" cx="415.5" cy="415.7" r="8.2"/>
		<path class="st0" d="M415.5,427.3c-3,0-6-1.1-8.3-3.4l0,0c-2.2-2.2-3.4-5.1-3.4-8.3c0-3.1,1.2-6.1,3.4-8.3s5.1-3.4,8.3-3.4
			c0,0,0,0,0,0c3.1,0,6.1,1.2,8.3,3.4c4.6,4.6,4.6,12,0,16.5C421.5,426.2,418.5,427.3,415.5,427.3z M415.5,411
			C415.5,411,415.5,411,415.5,411c-1.3,0-2.4,0.5-3.3,1.4c-0.9,0.9-1.4,2.1-1.4,3.3c0,1.3,0.5,2.4,1.4,3.3l0,0
			c1.8,1.8,4.8,1.8,6.6,0c0.9-0.9,1.4-2.1,1.4-3.3c0-1.3-0.5-2.4-1.4-3.3C417.9,411.5,416.7,411,415.5,411z"/>
	</g>
	<g>
		<circle class="st9" cx="366.6" cy="453.2" r="8.2"/>
		<path class="st0" d="M366.6,464.9c-1,0-2-0.1-3-0.4c-3-0.8-5.5-2.7-7.1-5.4l0,0c-1.6-2.7-2-5.9-1.2-8.9c0.8-3,2.7-5.5,5.4-7.1
			c2.7-1.6,5.9-2,8.9-1.2c3,0.8,5.5,2.7,7.1,5.4c1.6,2.7,2,5.9,1.2,8.9c-0.8,3-2.7,5.5-5.4,7.1C370.6,464.4,368.6,464.9,366.6,464.9
			z M366.5,448.6c-0.8,0-1.6,0.2-2.3,0.6c-1.1,0.6-1.9,1.6-2.2,2.8c-0.3,1.2-0.2,2.5,0.5,3.6l0,0c0.6,1.1,1.6,1.9,2.8,2.2
			c1.2,0.3,2.5,0.2,3.6-0.5c1.1-0.6,1.9-1.6,2.2-2.8c0.3-1.2,0.2-2.5-0.5-3.6c-0.6-1.1-1.6-1.9-2.8-2.2
			C367.4,448.6,367,448.6,366.5,448.6z"/>
	</g>
	<g>
		<circle class="st9" cx="309.6" cy="476.9" r="8.2"/>
		<path class="st0" d="M309.6,488.6c-5.2,0-9.9-3.4-11.3-8.7l0,0c-0.8-3-0.4-6.2,1.2-8.9s4.1-4.6,7.1-5.4c3-0.8,6.2-0.4,8.9,1.2
			c2.7,1.6,4.6,4.1,5.4,7.1c0.8,3,0.4,6.2-1.2,8.9c-1.6,2.7-4.1,4.6-7.1,5.4C311.6,488.4,310.6,488.6,309.6,488.6z M309.6,472.2
			c-0.4,0-0.8,0.1-1.2,0.2c-1.2,0.3-2.2,1.1-2.8,2.2c-0.6,1.1-0.8,2.3-0.5,3.6l0,0c0.7,2.5,3.2,4,5.7,3.3c1.2-0.3,2.2-1.1,2.8-2.2
			c0.6-1.1,0.8-2.3,0.5-3.6c-0.3-1.2-1.1-2.2-2.2-2.8C311.2,472.4,310.4,472.2,309.6,472.2z"/>
	</g>
	<g>
		<circle class="st9" cx="248.4" cy="485" r="8.2"/>
		<path class="st0" d="M248.4,496.7c-6.4,0-11.7-5.2-11.7-11.7v0c0-3.1,1.2-6.1,3.4-8.3s5.1-3.4,8.3-3.4c0,0,0,0,0,0
			c3.1,0,6,1.2,8.3,3.4c2.2,2.2,3.4,5.1,3.4,8.3C260.1,491.4,254.8,496.7,248.4,496.7C248.4,496.7,248.4,496.7,248.4,496.7z
			 M248.4,480.3C248.4,480.3,248.4,480.3,248.4,480.3c-1.3,0-2.4,0.5-3.3,1.4c-0.9,0.9-1.4,2.1-1.4,3.3v0c0,2.6,2.1,4.7,4.7,4.7
			c0,0,0,0,0,0c2.6,0,4.7-2.1,4.7-4.7c0-1.3-0.5-2.4-1.4-3.3C250.8,480.8,249.6,480.3,248.4,480.3z"/>
	</g>
	<g>
		<circle class="st9" cx="187.2" cy="477" r="8.2"/>
		<path class="st0" d="M187.2,488.7c-1,0-2-0.1-3-0.4c-3-0.8-5.5-2.7-7.1-5.4c-1.6-2.7-2-5.9-1.2-8.9l0,0c0.8-3,2.7-5.5,5.4-7.1
			c2.7-1.6,5.9-2,8.9-1.2c3,0.8,5.5,2.7,7.1,5.4c1.6,2.7,2,5.9,1.2,8.9c-0.8,3-2.7,5.5-5.4,7.1C191.2,488.1,189.2,488.7,187.2,488.7
			z M187.2,472.3c-0.8,0-1.6,0.2-2.3,0.6c-1.1,0.6-1.9,1.6-2.2,2.8v0c-0.3,1.2-0.2,2.5,0.5,3.6c0.6,1.1,1.6,1.9,2.8,2.2
			s2.5,0.2,3.6-0.5s1.9-1.6,2.2-2.8c0.3-1.2,0.2-2.5-0.5-3.6s-1.6-1.9-2.8-2.2C188,472.3,187.6,472.3,187.2,472.3z"/>
	</g>
	<g>
		<circle class="st9" cx="130.2" cy="453.4" r="8.2"/>
		<path class="st0" d="M130.1,465.1c-2,0-4-0.5-5.8-1.6c-2.7-1.6-4.6-4.1-5.5-7.1c-0.8-3-0.4-6.2,1.2-8.9c3.2-5.6,10.4-7.5,16-4.3
			c2.7,1.6,4.6,4.1,5.5,7.1c0.8,3,0.4,6.2-1.2,8.9c-1.6,2.7-4.1,4.6-7.1,5.4C132.2,464.9,131.2,465.1,130.1,465.1z M130.2,448.7
			c-0.4,0-0.8,0.1-1.2,0.2c-1.2,0.3-2.2,1.1-2.8,2.2v0c-0.6,1.1-0.8,2.3-0.5,3.6s1.1,2.2,2.2,2.8c1.1,0.6,2.3,0.8,3.6,0.5
			c1.2-0.3,2.2-1.1,2.8-2.2c0.6-1.1,0.8-2.3,0.5-3.6s-1.1-2.2-2.2-2.8C131.8,448.9,131,448.7,130.2,448.7z"/>
	</g>
	<g>
		<circle class="st9" cx="81.2" cy="415.9" r="8.2"/>
		<path class="st0" d="M81.2,427.5c-3.1,0-6-1.2-8.3-3.4c-2.2-2.2-3.4-5.1-3.4-8.3c0-3.1,1.2-6.1,3.4-8.3l0,0c4.6-4.6,12-4.6,16.5,0
			c2.2,2.2,3.4,5.1,3.4,8.3c0,3.1-1.2,6.1-3.4,8.3C87.2,426.3,84.3,427.5,81.2,427.5C81.2,427.5,81.2,427.5,81.2,427.5z M77.9,412.5
			c-1.8,1.8-1.8,4.8,0,6.6c0.9,0.9,2.1,1.4,3.3,1.4c0,0,0,0,0,0c1.3,0,2.4-0.5,3.3-1.4c0.9-0.9,1.4-2.1,1.4-3.3
			c0-1.3-0.5-2.4-1.4-3.3C82.7,410.7,79.7,410.7,77.9,412.5L77.9,412.5z"/>
	</g>
	<g>
		<circle class="st9" cx="43.6" cy="366.9" r="8.2"/>
		<path class="st0" d="M43.6,378.6c-1,0-2-0.1-3-0.4c-3-0.8-5.5-2.7-7.1-5.4c-3.2-5.6-1.3-12.7,4.3-16l0,0c2.7-1.6,5.9-2,8.9-1.2
			c3,0.8,5.5,2.7,7.1,5.4c3.2,5.6,1.3,12.7-4.3,16C47.6,378.1,45.6,378.6,43.6,378.6z M43.6,362.2c-0.8,0-1.6,0.2-2.3,0.6l0,0
			c-2.2,1.3-3,4.2-1.7,6.4c0.6,1.1,1.6,1.9,2.8,2.2c1.2,0.3,2.5,0.2,3.6-0.5c2.2-1.3,3-4.2,1.7-6.4c-0.6-1.1-1.6-1.9-2.8-2.2
			C44.4,362.3,44,362.2,43.6,362.2z"/>
	</g>
	<g>
		<circle class="st9" cx="19.9" cy="309.9" r="8.2"/>
		<path class="st0" d="M19.9,321.6c-5.2,0-9.9-3.4-11.3-8.7c-0.8-3-0.4-6.2,1.2-8.9c1.6-2.7,4.1-4.6,7.1-5.5l0,0
			c6.2-1.7,12.6,2,14.3,8.3c1.7,6.2-2,12.6-8.3,14.3C21.9,321.5,20.9,321.6,19.9,321.6z M19.9,305.2c-0.4,0-0.8,0.1-1.2,0.2h0
			c-1.2,0.3-2.2,1.1-2.8,2.2c-0.6,1.1-0.8,2.3-0.5,3.6c0.7,2.5,3.2,4,5.7,3.3c2.5-0.7,4-3.2,3.3-5.7C23.9,306.6,22,305.2,19.9,305.2
			z"/>
	</g>
	<g>
		<circle class="st9" cx="11.8" cy="248.8" r="8.2"/>
		<path class="st0" d="M11.8,260.4c-6.4,0-11.7-5.2-11.7-11.7c0-6.4,5.2-11.7,11.7-11.7c0,0,0,0,0,0c3.1,0,6,1.2,8.3,3.4
			c2.2,2.2,3.4,5.1,3.4,8.3C23.5,255.2,18.2,260.4,11.8,260.4C11.8,260.4,11.8,260.4,11.8,260.4z M11.8,240.6l0,3.5
			c-2.6,0-4.7,2.1-4.7,4.7c0,2.6,2.1,4.7,4.7,4.7c0,0,0,0,0,0c2.6,0,4.7-2.1,4.7-4.7c0-2.6-2.1-4.7-4.7-4.7c0,0,0,0,0,0L11.8,240.6z
			"/>
	</g>
	<g>
		<circle class="st9" cx="19.8" cy="187.6" r="8.2"/>
		<path class="st0" d="M19.8,199.2c-1,0-2-0.1-3-0.4c-6.2-1.7-9.9-8.1-8.3-14.3c0.8-3,2.7-5.5,5.4-7.1c2.7-1.6,5.9-2,8.9-1.2
			c3,0.8,5.5,2.7,7.1,5.4c1.6,2.7,2,5.9,1.2,8.9C29.7,195.8,25,199.2,19.8,199.2z M19.8,182.9c-0.8,0-1.6,0.2-2.3,0.6
			c-1.1,0.6-1.9,1.6-2.2,2.8c-0.3,1.2-0.2,2.5,0.5,3.6c0.6,1.1,1.6,1.9,2.8,2.2c2.5,0.7,5.1-0.8,5.7-3.3c0.3-1.2,0.2-2.5-0.5-3.6
			c-0.6-1.1-1.6-1.9-2.8-2.2l0,0C20.6,182.9,20.2,182.9,19.8,182.9z"/>
	</g>
	<g>
		<circle class="st9" cx="43.4" cy="130.5" r="8.2"/>
		<path class="st0" d="M43.3,142.2c-2,0-4-0.5-5.8-1.6c-2.7-1.6-4.6-4.1-5.5-7.1c-0.8-3-0.4-6.2,1.2-8.9c3.2-5.6,10.4-7.5,16-4.3
			c5.6,3.2,7.5,10.4,4.3,16c-1.6,2.7-4.1,4.6-7.1,5.5C45.4,142.1,44.4,142.2,43.3,142.2z M43.4,125.8c-1.6,0-3.2,0.8-4.1,2.3
			c-0.6,1.1-0.8,2.3-0.5,3.6c0.3,1.2,1.1,2.2,2.2,2.8c2.2,1.3,5.1,0.5,6.4-1.7c0.6-1.1,0.8-2.3,0.5-3.6c-0.3-1.2-1.1-2.2-2.2-2.8
			C45,126,44.2,125.8,43.4,125.8z"/>
	</g>
	<g>
		<circle class="st9" cx="80.9" cy="81.5" r="8.2"/>
		<path class="st0" d="M80.9,93.2c-3.1,0-6-1.2-8.3-3.4c-4.6-4.6-4.6-12,0-16.5c4.6-4.6,12-4.6,16.5,0h0c4.6,4.6,4.6,12,0,16.5
			C86.9,92,84,93.2,80.9,93.2C80.9,93.2,80.9,93.2,80.9,93.2z M80.9,76.8c-1.2,0-2.4,0.5-3.3,1.4c-1.8,1.8-1.8,4.8,0,6.6
			c0.9,0.9,2.1,1.4,3.3,1.4c0,0,0,0,0,0c1.3,0,2.4-0.5,3.3-1.4s1.4-2.1,1.4-3.3c0-1.3-0.5-2.4-1.4-3.3l0,0
			C83.3,77.3,82.1,76.8,80.9,76.8z"/>
	</g>
	<g>
		<circle class="st9" cx="129.8" cy="43.9" r="8.2"/>
		<path class="st0" d="M129.8,55.6c-1,0-2-0.1-3-0.4c-3-0.8-5.5-2.7-7.1-5.4c-1.6-2.7-2-5.9-1.2-8.9c0.8-3,2.7-5.5,5.4-7.1
			c2.7-1.6,5.9-2,8.9-1.2c3,0.8,5.5,2.7,7.1,5.4c1.6,2.7,2,5.9,1.2,8.9c-0.8,3-2.7,5.5-5.4,7.1C133.8,55.1,131.8,55.6,129.8,55.6z
			 M129.8,39.2c-0.8,0-1.6,0.2-2.3,0.6c-1.1,0.6-1.9,1.6-2.2,2.8s-0.2,2.5,0.5,3.6c0.6,1.1,1.6,1.9,2.8,2.2c1.2,0.3,2.5,0.2,3.6-0.5
			c1.1-0.6,1.9-1.6,2.2-2.8s0.2-2.5-0.5-3.6C133,40.1,131.4,39.2,129.8,39.2z"/>
	</g>
	<g>
		<circle class="st9" cx="186.8" cy="20.2" r="8.2"/>
		<path class="st0" d="M186.8,31.9c-2,0-4-0.5-5.8-1.6c-2.7-1.6-4.6-4.1-5.5-7.1c-1.7-6.2,2-12.6,8.2-14.3c3-0.8,6.2-0.4,8.9,1.2
			c2.7,1.6,4.6,4.1,5.5,7.1c1.7,6.2-2,12.6-8.2,14.3C188.8,31.8,187.8,31.9,186.8,31.9z M186.8,15.5c-0.4,0-0.8,0.1-1.2,0.2
			c-2.5,0.7-4,3.2-3.3,5.7c0.3,1.2,1.1,2.2,2.2,2.8c1.1,0.6,2.3,0.8,3.6,0.5c2.5-0.7,4-3.2,3.3-5.7v0c-0.3-1.2-1.1-2.2-2.2-2.8
			C188.4,15.8,187.6,15.5,186.8,15.5z"/>
	</g>
</g>
</svg>
